<?xml version="1.0" encoding="UTF-8"?>
<svg width="24px" height="24px" viewBox="0 0 24 24" version="1.1" xmlns="http://www.w3.org/2000/svg" xmlns:xlink="http://www.w3.org/1999/xlink">
    <title>about</title>
    <g id="about" stroke="none" fill="none" fill-rule="nonzero">
        <path d="M17.3625,16.8075 C16.53375,15.3675 14.9775,14.4 13.2,14.4 L10.8,14.4 C9.0225,14.4 7.46625,15.3675 6.6375,16.8075 C7.9575,18.2775 9.87,19.2 12,19.2 C14.13,19.2 16.0425,18.27375 17.3625,16.8075 Z M2.4,12 C2.4,6.6975 6.6975,2.4 12,2.4 C17.3025,2.4 21.6,6.6975 21.6,12 C21.6,17.3025 17.3025,21.6 12,21.6 C6.6975,21.6 2.4,17.3025 2.4,12 Z M12,12.6 C13.4925,12.6 14.7,11.3925 14.7,9.9 C14.7,8.4075 13.4925,7.2 12,7.2 C10.5075,7.2 9.3,8.4075 9.3,9.9 C9.3,11.3925 10.5075,12.6 12,12.6 Z" id="Shape" fill="currentColor"></path>
    </g>
</svg>