<?xml version="1.0" encoding="UTF-8"?>
<svg width="24px" height="24px" viewBox="0 0 24 24" version="1.1" xmlns="http://www.w3.org/2000/svg" xmlns:xlink="http://www.w3.org/1999/xlink">
    <title>album</title>
    <g id="album" stroke="none" fill="none" fill-rule="nonzero">
        <path d="M4.85714286,2 C3.28125,2 2,3.28125 2,4.85714286 L2,19.1428571 C2,20.71875 3.28125,22 4.85714286,22 L19.1428571,22 C20.71875,22 22,20.71875 22,19.1428571 L22,4.85714286 C22,3.28125 20.71875,2 19.1428571,2 L4.85714286,2 Z M7.71428571,5.57142857 C8.89732143,5.57142857 9.85714286,6.53125 9.85714286,7.71428571 C9.85714286,8.89732143 8.89732143,9.85714286 7.71428571,9.85714286 C6.53125,9.85714286 5.57142857,8.89732143 5.57142857,7.71428571 C5.57142857,6.53125 6.53125,5.57142857 7.71428571,5.57142857 Z M14.1428571,10.5714286 C14.5178571,10.5714286 14.8616071,10.7678571 15.0580357,11.0848214 L18.9866071,17.5133929 C19.1875,17.84375 19.1964286,18.2589286 19.0089286,18.5982143 C18.8214286,18.9375 18.4598214,19.1428571 18.0714286,19.1428571 L5.92857143,19.1428571 C5.53125,19.1428571 5.16071429,18.9196429 4.97767857,18.5669643 C4.79464286,18.2142857 4.82142857,17.7857143 5.04910714,17.4598214 L7.54910714,13.8883929 C7.75,13.6026786 8.07589286,13.4330357 8.42857143,13.4330357 C8.78125,13.4330357 9.10714286,13.6026786 9.30803571,13.8883929 L10.4866071,15.5758929 L13.2276786,11.0892857 C13.4241071,10.7723214 13.7678571,10.5758929 14.1428571,10.5758929 L14.1428571,10.5714286 Z" id="Shape" fill="currentColor"></path>
    </g>
</svg>