<?xml version="1.0" encoding="UTF-8"?>
<svg width="16px" height="16px" viewBox="0 0 16 16" version="1.1" xmlns="http://www.w3.org/2000/svg" xmlns:xlink="http://www.w3.org/1999/xlink">
    <title>external</title>
    <g id="external" stroke="none" fill="none" fill-rule="nonzero">
        <path d="M8.8,2.2 C8.8,2.5325 9.0675,2.8 9.4,2.8 L12.3525,2.8 L6.5775,8.575 C6.3425,8.81 6.3425,9.19 6.5775,9.4225 C6.8125,9.655 7.1925,9.6575 7.425,9.4225 L13.2,3.6475 L13.2,6.6 C13.2,6.9325 13.4675,7.2 13.8,7.2 C14.1325,7.2 14.4,6.9325 14.4,6.6 L14.4,2.2 C14.4,1.8675 14.1325,1.6 13.8,1.6 L9.4,1.6 C9.0675,1.6 8.8,1.8675 8.8,2.2 Z M3.6,4 C2.495,4 1.6,4.895 1.6,6 L1.6,12.4 C1.6,13.505 2.495,14.4 3.6,14.4 L10,14.4 C11.105,14.4 12,13.505 12,12.4 L12,10.2 C12,9.8675 11.7325,9.6 11.4,9.6 C11.0675,9.6 10.8,9.8675 10.8,10.2 L10.8,12.4 C10.8,12.8425 10.4425,13.2 10,13.2 L3.6,13.2 C3.1575,13.2 2.8,12.8425 2.8,12.4 L2.8,6 C2.8,5.5575 3.1575,5.2 3.6,5.2 L5.8,5.2 C6.1325,5.2 6.4,4.9325 6.4,4.6 C6.4,4.2675 6.1325,4 5.8,4 L3.6,4 Z" id="Shape" fill="currentColor"></path>
    </g>
</svg>