<?xml version="1.0" encoding="UTF-8"?>
<svg width="24px" height="24px" viewBox="0 0 24 24" version="1.1" xmlns="http://www.w3.org/2000/svg" xmlns:xlink="http://www.w3.org/1999/xlink">
    <title>external</title>
    <g id="external" stroke="none" fill="none" fill-rule="nonzero">
        <path d="M13.2,3.3 C13.2,3.79875 13.60125,4.2 14.1,4.2 L18.52875,4.2 L9.86625,12.8625 C9.51375,13.215 9.51375,13.785 9.86625,14.13375 C10.21875,14.4825 10.78875,14.48625 11.1375,14.13375 L19.8,5.47125 L19.8,9.9 C19.8,10.39875 20.20125,10.8 20.7,10.8 C21.19875,10.8 21.6,10.39875 21.6,9.9 L21.6,3.3 C21.6,2.80125 21.19875,2.4 20.7,2.4 L14.1,2.4 C13.60125,2.4 13.2,2.80125 13.2,3.3 Z M5.4,6 C3.7425,6 2.4,7.3425 2.4,9 L2.4,18.6 C2.4,20.2575 3.7425,21.6 5.4,21.6 L15,21.6 C16.6575,21.6 18,20.2575 18,18.6 L18,15.3 C18,14.80125 17.59875,14.4 17.1,14.4 C16.60125,14.4 16.2,14.80125 16.2,15.3 L16.2,18.6 C16.2,19.26375 15.66375,19.8 15,19.8 L5.4,19.8 C4.73625,19.8 4.2,19.26375 4.2,18.6 L4.2,9 C4.2,8.33625 4.73625,7.8 5.4,7.8 L8.7,7.8 C9.19875,7.8 9.6,7.39875 9.6,6.9 C9.6,6.40125 9.19875,6 8.7,6 L5.4,6 Z" id="Shape" fill="#000000"></path>
    </g>
</svg>