<?xml version="1.0" encoding="UTF-8"?>
<svg width="24px" height="24px" viewBox="0 0 24 24" version="1.1" xmlns="http://www.w3.org/2000/svg" xmlns:xlink="http://www.w3.org/1999/xlink">
    <title>instagram</title>
    <g id="instagram" stroke="none" fill="none" fill-rule="nonzero">
        <path d="M12.01125,7.68747819 C9.63,7.68 7.695,9.6075 7.68747819,11.98875 C7.68,14.37 9.6075,16.305 11.98875,16.3125218 C14.37,16.32 16.305,14.3925 16.3125218,12.01125 C16.32,9.63 14.3925,7.695 12.01125,7.68747819 Z M11.98875,9.20246639 C13.53375,9.195 14.79,10.44375 14.7975336,11.98875 C14.805,13.53375 13.55625,14.79 12.01125,14.7975336 C10.46625,14.805 9.21,13.55625 9.20246639,12.01125 C9.195,10.46625 10.44375,9.21 11.98875,9.20246639 Z M15.49125,7.51125 C15.49125,6.95625 15.94125,6.50625 16.49625,6.50625 C17.05125,6.50625 17.50125,6.95625 17.50125,7.51125 C17.50125,8.06625 17.05125,8.51625 16.49625,8.51625 C15.94125,8.51625 15.49125,8.06625 15.49125,7.51125 Z M20.355,8.53125 C20.29125,7.185 19.98375,5.9925 18.9975,5.01 C18.015,4.0275 16.8225,3.72 15.47625,3.6525 C14.08875,3.57375 9.93,3.57375 8.5425,3.6525 C7.2,3.71625 6.0075,4.02375 5.02125,5.00625 C4.035,5.98875 3.73125,7.18125 3.66375,8.5275 C3.585,9.915 3.585,14.07375 3.66375,15.46125 C3.7275,16.8075 4.035,18 5.02125,18.9825 C6.0075,19.965 7.19625,20.2725 8.5425,20.34 C9.93,20.41875 14.08875,20.41875 15.47625,20.34 C16.8225,20.27625 18.015,19.96875 18.9975,18.9825 C19.98,18 20.2875,16.8075 20.355,15.46125 C20.43375,14.07375 20.43375,9.91875 20.355,8.53125 Z M18.5625,16.95 C18.27,17.685 17.70375,18.25125 16.965,18.5475 C15.85875,18.98625 13.23375,18.885 12.01125,18.885 C10.78875,18.885 8.16,18.9825 7.0575,18.5475 C6.3225,18.255 5.75625,17.68875 5.46,16.95 C5.02125,15.84375 5.1225,13.21875 5.1225,11.99625 C5.1225,10.77375 5.025,8.145 5.46,7.0425 C5.7525,6.3075 6.31875,5.74125 7.0575,5.445 C8.16375,5.00625 10.78875,5.1075 12.01125,5.1075 C13.23375,5.1075 15.8625,5.01 16.965,5.445 C17.7,5.7375 18.26625,6.30375 18.5625,7.0425 C19.00125,8.14875 18.9,10.77375 18.9,11.99625 C18.9,13.21875 19.00125,15.8475 18.5625,16.95 Z" id="Shape" fill="currentColor"></path>
    </g>
</svg>