<?xml version="1.0" encoding="UTF-8"?>
<svg width="24px" height="24px" viewBox="0 0 24 24" version="1.1" xmlns="http://www.w3.org/2000/svg" xmlns:xlink="http://www.w3.org/1999/xlink">
    <title>linkedin</title>
    <g id="linkedin" stroke="none" fill="none" fill-rule="nonzero">
        <path d="M19.2,3.6 L4.79625,3.6 C4.13625,3.6 3.6,4.14375 3.6,4.81125 L3.6,19.18875 C3.6,19.85625 4.13625,20.4 4.79625,20.4 L19.2,20.4 C19.86,20.4 20.4,19.85625 20.4,19.18875 L20.4,4.81125 C20.4,4.14375 19.86,3.6 19.2,3.6 Z M8.6775,18 L6.1875,18 L6.1875,9.9825 L8.68125,9.9825 L8.68125,18 L8.6775,18 Z M7.4325,6 C8.23125,6 8.87625,6.645 8.87625,7.44375 C8.87625,8.2425 8.23125,8.8875 7.4325,8.8875 C6.63375,8.8875 5.98875,8.2425 5.98875,7.44375 C5.98875,6.645 6.63375,6 7.4325,6 Z M18.01125,18 L15.52125,18 L15.52125,14.1 C15.52125,13.17 15.5025,11.97375 14.2275,11.97375 C12.93,11.97375 12.73125,12.98625 12.73125,14.0325 L12.73125,18 L10.24125,18 L10.24125,9.9825 L12.63,9.9825 L12.63,11.0775 L12.66375,11.0775 C12.9975,10.4475 13.81125,9.78375 15.0225,9.78375 C17.5425,9.78375 18.01125,11.445 18.01125,13.605 L18.01125,18 Z" id="Shape" fill="currentColor"></path>
    </g>
</svg>