<?xml version="1.0" encoding="UTF-8"?>
<svg width="24px" height="24px" viewBox="0 0 24 24" version="1.1" xmlns="http://www.w3.org/2000/svg" xmlns:xlink="http://www.w3.org/1999/xlink">
    <title>message</title>
    <g id="message" stroke="none" fill="none" fill-rule="nonzero">
        <path d="M12.8333333,2 C14.2152778,2 15.3333333,3.11805556 15.3333333,4.5 L15.3333333,11.1666667 C15.3333333,12.5486111 14.2152778,13.6666667 12.8333333,13.6666667 L9.22222222,13.6666667 L6.32638889,16.2986111 C6.22569444,16.3923611 6.09027778,16.4444444 5.95138889,16.4444444 L5.88888889,16.4444444 C5.58333333,16.4444444 5.33333333,16.1944444 5.33333333,15.8888889 L5.33333333,13.6666667 L4.5,13.6666667 C3.11805556,13.6666667 2,12.5486111 2,11.1666667 L2,4.5 C2,3.11805556 3.11805556,2 4.5,2 L12.8333333,2 Z M8.66666667,16.7222222 L8.66666667,16.4236111 L9.86805556,15.3333333 L12.8333333,15.3333333 C15.1354167,15.3333333 17,13.46875 17,11.1666667 L17,7.55555556 L19.5,7.55555556 C20.8819444,7.55555556 22,8.67361111 22,10.0555556 L22,16.7222222 C22,18.1041667 20.8819444,19.2222222 19.5,19.2222222 L18.6666667,19.2222222 L18.6666667,21.4444444 C18.6666667,21.75 18.4166667,22 18.1111111,22 L18.0486111,22 C17.9097222,22 17.7777778,21.9479167 17.6736111,21.8541667 L14.7777778,19.2222222 L11.1666667,19.2222222 C9.78472222,19.2222222 8.66666667,18.1041667 8.66666667,16.7222222 Z" id="Shape" fill="#000000"></path>
    </g>
</svg>