<?xml version="1.0" encoding="UTF-8"?>
<svg width="24px" height="24px" viewBox="0 0 24 24" version="1.1" xmlns="http://www.w3.org/2000/svg" xmlns:xlink="http://www.w3.org/1999/xlink">
    <title>photography</title>
    <g id="photography" stroke="none" fill="none" fill-rule="nonzero">
        <path d="M2.4,18 L2.4,10.2 L7.5075,10.2 C8.01375,9.4425 8.7075,8.82 9.52125,8.4 L2.4,8.4 L2.4,7.11375 C2.4,5.79 3.47625,4.71375 4.8,4.71375 L4.80375,4.71375 C4.84875,4.09125 5.36625,3.6 6,3.6 L7.2,3.6 C7.83375,3.6 8.35125,4.09125 8.39625,4.71375 L9.6,4.71375 L11.52,3.82125 C11.835,3.675 12.18,3.59625 12.52875,3.59625 L19.2,3.6 C20.52375,3.6 21.6,4.67625 21.6,6 L21.6,8.4 L14.475,8.4 C15.28875,8.82 15.9825,9.4425 16.48875,10.2 L21.59625,10.2 L21.59625,18 C21.59625,19.32375 20.52,20.4 19.19625,20.4 L4.8,20.4 C3.47625,20.4 2.4,19.32375 2.4,18 Z M12,9.6 C10.68375,9.55875 9.45375,10.23375 8.7825,11.36625 C8.11125,12.49875 8.11125,13.905 8.7825,15.0375 C9.45375,16.17 10.68375,16.845 12,16.80375 C13.31625,16.845 14.54625,16.17 15.2175,15.0375 C15.88875,13.905 15.88875,12.49875 15.2175,11.36625 C14.54625,10.23375 13.31625,9.55875 12,9.6 Z" id="Shape" fill="currentColor"></path>
    </g>
</svg>