<?xml version="1.0" encoding="UTF-8"?>
<svg width="24px" height="24px" viewBox="0 0 24 24" version="1.1" xmlns="http://www.w3.org/2000/svg" xmlns:xlink="http://www.w3.org/1999/xlink">
    <title>uxdesign</title>
    <g id="uxdesign" stroke="none" fill="none" fill-rule="nonzero">
        <path d="M7.8,2.4 C6.47625,2.4 5.4,3.47625 5.4,4.8 L5.4,19.2 C5.4,20.52375 6.47625,21.6 7.8,21.6 L16.2,21.6 C17.52375,21.6 18.6,20.52375 18.6,19.2 L18.6,4.8 C18.6,3.47625 17.52375,2.4 16.2,2.4 L7.8,2.4 Z M10.5,18 L13.5,18 C13.99875,18 14.4,18.40125 14.4,18.9 C14.4,19.39875 13.99875,19.8 13.5,19.8 L10.5,19.8 C10.00125,19.8 9.6,19.39875 9.6,18.9 C9.6,18.40125 10.00125,18 10.5,18 Z" id="Shape" fill="currentColor"></path>
    </g>
</svg>