<?xml version="1.0" encoding="UTF-8"?>
<svg width="96px" height="96px" viewBox="0 0 96 96" version="1.1" xmlns="http://www.w3.org/2000/svg" xmlns:xlink="http://www.w3.org/1999/xlink">
    <title>favicon</title>
    <g id="favicon" stroke="none" fill="none" fill-rule="evenodd">
        <path d="M80,36 C85.0159451,36 88.660848,38.3911287 90.9347088,43.1733862 L90.9347808,43.1733523 C91.1703031,43.6728998 90.9562684,44.2687916 90.4567209,44.5043139 C90.4203302,44.521471 90.3829374,44.5364164 90.3447462,44.5490685 L81.4218223,47.5255278 C81.1598801,47.6129398 81.0183953,47.8961474 81.1058073,48.1580896 C81.1556005,48.3073019 81.2727088,48.424383 81.4219327,48.4741415 L90.3500398,51.4509179 C90.8738116,51.6260795 91.156416,52.1926769 90.9812544,52.7164487 C90.9689257,52.7533143 90.9544579,52.7894297 90.9379246,52.8246109 C88.6718105,57.6080129 85.0262414,60 80,60 C73.372583,60 68,54.627417 68,48 C68,41.372583 73.372583,36 80,36 Z" id="e" fill="#208730"></path>
        <circle id="o" fill="#FEBC2E" cx="48" cy="48" r="12"></circle>
        <path d="M4,58 L4,34 C4,32.8954305 4.8954305,32 6,32 L10,32.0000342 C11.1045561,32.0000342 11.9999811,32.8954439 12,34 L12.0000711,36.0197035 C12.0009173,36.2958446 12.2254599,36.5190152 12.501601,36.5181689 C12.5450506,36.5180358 12.5882976,36.5122396 12.6302489,36.500927 C13.8647177,36.1669429 14.9879768,36 16,36 C22.627417,36 28,41.372583 28,48 C28,54.627417 22.627417,60 16,60 L6,60 C4.8954305,60 4,59.1045695 4,58 Z" id="b" fill="#FE5F57"></path>
    </g>
</svg>